<svg id="Laag_1" data-name="Laag 1" xmlns="http://www.w3.org/2000/svg" viewBox="0 0 1200 1200"><defs><style>.cls-1{fill:#fff;}</style></defs><path class="cls-1" d="M601.09,0A596.49,596.49,0,0,0,250.88,112.93a88.88,88.88,0,0,1,38.89,15.65,564.7,564.7,0,0,1,759.06,127.2q4.8,6.25,9.43,12.65,5.54,7.62,10.79,15.4a564.68,564.68,0,1,1-939.47,5.3H88.18A596.54,596.54,0,0,0,1.77,599.32c0,331,268.32,599.32,599.32,599.32s599.32-268.33,599.32-599.32S932.08,0,601.09,0Z"/><path class="cls-1" d="M323.88,943.3a85.7,85.7,0,1,0,85.7-85.7,85.79,85.79,0,0,0-85.7,85.7Zm0,0"/><path class="cls-1" d="M725.72,943.3a85.7,85.7,0,1,0,85.7-85.7,85.79,85.79,0,0,0-85.7,85.7Zm0,0"/><path class="cls-1" d="M352.44,743.34H868.55A28.49,28.49,0,0,0,896,722.61l114.27-399.94a28.52,28.52,0,0,0-27.45-36.4H286.5l-20.43-91.89A28.55,28.55,0,0,0,238.18,172H64.88a28.57,28.57,0,1,0,0,57.13H215.25L318.41,693.34a85.64,85.64,0,0,0,34,164.26H868.55a28.57,28.57,0,1,0,0-57.13H352.44a28.57,28.57,0,0,1,0-57.13Zm0,0"/><path class="cls-1" d="M1058.26,268.43q-4.62-6.39-9.43-12.65c1.62,1.79,3.16,3.66,4.62,5.59l.08.11C1055.23,263.73,1056.8,266.05,1058.26,268.43Z"/><path class="cls-1" d="M352.44,743.34H868.55A28.49,28.49,0,0,0,896,722.61l114.27-399.94a28.52,28.52,0,0,0-27.45-36.4H286.5l-20.43-91.89A28.55,28.55,0,0,0,238.18,172H64.88a28.57,28.57,0,1,0,0,57.13H215.25L318.41,693.34a85.64,85.64,0,0,0,34,164.26H868.55a28.57,28.57,0,1,0,0-57.13H352.44a28.57,28.57,0,0,1,0-57.13Zm0,0"/></svg>
