<svg id="Laag_1" data-name="Laag 1" xmlns="http://www.w3.org/2000/svg" viewBox="0 0 1200 1200"><defs><style>.cls-1{fill:#fff;}</style></defs><path class="cls-1" d="M1057,941.82v45.52c-109.93,129.57-274,211.8-457.19,211.8s-347.09-82.15-457-211.61V941.82c2.5-88.22,50.19-168.44,135-226.53,84.37-57.81,198.74-89.64,322.09-89.64S837.57,657.48,922,715.29C1006.78,773.38,1054.51,853.56,1057,941.82Z"/><path class="cls-1" d="M761.54,193.84a228.57,228.57,0,0,0-161.65-67c-126.25,0-228.6,102.35-228.6,228.6s102.35,228.61,228.6,228.61S828.5,481.73,828.5,355.48A228.58,228.58,0,0,0,761.54,193.84Z"/><path class="cls-1" d="M1057,941.82v45.52c-109.93,129.57-274,211.8-457.19,211.8s-347.09-82.15-457-211.61V941.82c2.5-88.22,50.19-168.44,135-226.53,84.37-57.81,198.74-89.64,322.09-89.64S837.57,657.48,922,715.29C1006.78,773.38,1054.51,853.56,1057,941.82Z"/><path class="cls-1" d="M599.81.5C268.82.5.49,268.82.49,599.82A596.44,596.44,0,0,0,85.42,907.53a312,312,0,0,1,11.36-51.67q-9.14-17.91-17-36.39a563.46,563.46,0,0,1,52-535.14A566.2,566.2,0,0,1,380.16,79.83a563.46,563.46,0,0,1,535.14,52,566.2,566.2,0,0,1,204.5,248.31,566.34,566.34,0,0,1,0,439.3q-7.77,18.35-16.86,36.18a309.61,309.61,0,0,1,11.39,51.65,596.41,596.41,0,0,0,84.8-307.48C1199.13,268.82,930.81.5,599.81.5Z"/><path class="cls-1" d="M1057,941.82v45.52c-109.93,129.57-274,211.8-457.19,211.8s-347.09-82.15-457-211.61V941.82c2.5-88.22,50.19-168.44,135-226.53,84.37-57.81,198.74-89.64,322.09-89.64S837.57,657.48,922,715.29C1006.78,773.38,1054.51,853.56,1057,941.82Z"/></svg>
