<svg xmlns="http://www.w3.org/2000/svg" width="209.176" height="28.73" viewBox="0 0 209.176 28.73">
  <g id="Group_1212" data-name="Group 1212" transform="translate(-393 -15.635)">
    <path id="Path_1131" data-name="Path 1131" d="M.818,182.59,0,186.506H3.278l.209-1H1.415l.1-.489H3.4l.192-.929H1.716l.1-.489H3.848l.2-1Z" transform="translate(393 -142.393)" fill="#fff"/>
    <path id="Path_1132" data-name="Path 1132" d="M25.664,182.59h1.085l-.811,3.915H24.853Z" transform="translate(371.988 -142.393)" fill="#fff"/>
    <path id="Path_1133" data-name="Path 1133" d="M39.646,191.129c-.071.193-.284.9-1.512.9-1.009,0-1.415-.565-1.415-1.255a1.637,1.637,0,0,1,1.7-1.734,1.273,1.273,0,0,1,1.393,1.246,1.761,1.761,0,0,1-.055.493H37.732c0,.3.105.552.444.552a.464.464,0,0,0,.427-.2Zm-.854-.914a.51.51,0,0,0,.011-.094.371.371,0,0,0-.411-.384.568.568,0,0,0-.565.478Z" transform="translate(361.955 -147.847)" fill="#fff"/>
    <path id="Path_1134" data-name="Path 1134" d="M60.977,190.193a.335.335,0,0,0-.077-.28.354.354,0,0,0-.273-.083c-.472,0-.6.62-.6.888s.06.521.373.521a.536.536,0,0,0,.477-.416h1.042a1.42,1.42,0,0,1-1.53,1.206c-1.206,0-1.447-.767-1.447-1.3a1.6,1.6,0,0,1,1.715-1.689c.789,0,1.376.357,1.36,1.152Z" transform="translate(343.166 -147.847)" fill="#fff"/>
    <path id="Path_1135" data-name="Path 1135" d="M81.421,184.8h.587l-.154.669h-.575l-.192.915a1.315,1.315,0,0,0-.049.285c0,.094.049.169.22.169s.268-.011.356-.017l-.164.784a4.724,4.724,0,0,1-.586.071,1.4,1.4,0,0,1-.685-.115.628.628,0,0,1-.3-.537,1.7,1.7,0,0,1,.06-.389l.252-1.167h-.481l.153-.669h.471l.192-.861h1.085Z" transform="translate(325.607 -143.537)" fill="#fff"/>
    <path id="Path_1136" data-name="Path 1136" d="M93.761,189.114h1.052l-.093.443h.011a1.1,1.1,0,0,1,.828-.516,1.126,1.126,0,0,1,.384.046l-.2.957a1.239,1.239,0,0,0-.416-.071c-.461,0-.691.2-.817.8l-.247,1.19H93.175Z" transform="translate(314.225 -147.847)" fill="#fff"/>
    <path id="Path_1137" data-name="Path 1137" d="M111.547,189.041c.833,0,1.382.385,1.382,1.246a1.637,1.637,0,0,1-1.715,1.743,1.256,1.256,0,0,1-1.42-1.332,1.6,1.6,0,0,1,1.753-1.656m-.284,2.2c.427,0,.58-.629.58-.877,0-.34-.087-.533-.378-.533-.433,0-.586.654-.586.95,0,.229.077.459.384.459" transform="translate(300.174 -147.847)" fill="#fff"/>
    <path id="Path_1138" data-name="Path 1138" d="M131.614,189.114h1.047l-.082.361h.011a1.158,1.158,0,0,1,.882-.434c.5,0,.926.209.926.768a3.061,3.061,0,0,1-.077.542l-.345,1.608h-1.085l.28-1.306a3.294,3.294,0,0,0,.088-.471.272.272,0,0,0-.307-.273c-.346,0-.46.245-.526.541l-.319,1.509h-1.085Z" transform="translate(282.227 -147.847)" fill="#fff"/>
    <path id="Path_1139" data-name="Path 1139" d="M154.655,183.66h1.085l-.592,2.845h-1.085Zm1.146-.308h-1.086l.159-.762h1.085Z" transform="translate(262.746 -142.393)" fill="#fff"/>
    <path id="Path_1140" data-name="Path 1140" d="M167.966,190.193a.336.336,0,0,0-.077-.28.357.357,0,0,0-.274-.083c-.472,0-.6.62-.6.888s.06.521.372.521a.535.535,0,0,0,.477-.416h1.041a1.419,1.419,0,0,1-1.529,1.206c-1.206,0-1.447-.767-1.447-1.3a1.6,1.6,0,0,1,1.716-1.689c.789,0,1.375.357,1.359,1.152Z" transform="translate(252.711 -147.847)" fill="#fff"/>
    <path id="Path_1141" data-name="Path 1141" d="M186.837,182.59h1.94a1.1,1.1,0,0,1,1.184,1.262,1.549,1.549,0,0,1-1.693,1.469h-.811l-.247,1.184h-1.19Zm.818,1.8h.46c.482,0,.642-.182.642-.444,0-.3-.269-.351-.521-.351h-.41Z" transform="translate(235.729 -142.393)" fill="#fff"/>
    <path id="Path_1142" data-name="Path 1142" d="M210.926,189.972c.17-.755.757-.931,1.453-.931.515,0,1.381.067,1.381.757,0,.445-.346,1.721-.346,1.908.022.219,0,.12.044.253H212.4a.773.773,0,0,1-.038-.275h-.011a1.188,1.188,0,0,1-.877.345c-.488,0-.921-.215-.921-.755,0-.752.559-.955,1.377-1.015.306-.021.794.022.794-.329,0-.2-.175-.246-.34-.246a.391.391,0,0,0-.433.289Zm1.053,1.416c.367,0,.515-.269.58-.691a1.541,1.541,0,0,1-.575.126c-.18.017-.35.111-.35.318s.17.247.345.247" transform="translate(214.992 -147.847)" fill="#fff"/>
    <path id="Path_1143" data-name="Path 1143" d="M233.148,189.114H234.2l-.093.443h.011a1.1,1.1,0,0,1,.828-.516,1.126,1.126,0,0,1,.384.046l-.2.957a1.241,1.241,0,0,0-.416-.071c-.46,0-.691.2-.817.8l-.247,1.19h-1.085Z" transform="translate(196.381 -147.847)" fill="#fff"/>
    <path id="Path_1144" data-name="Path 1144" d="M252.873,184.8h.586l-.153.669h-.576l-.191.915a1.288,1.288,0,0,0-.049.285c0,.094.049.169.219.169s.269-.011.356-.017l-.164.784a4.745,4.745,0,0,1-.586.071,1.4,1.4,0,0,1-.686-.115.629.629,0,0,1-.3-.537,1.7,1.7,0,0,1,.061-.389l.252-1.167h-.483l.154-.669h.471l.192-.861h1.085Z" transform="translate(180.654 -143.537)" fill="#fff"/>
    <path id="Path_1145" data-name="Path 1145" d="M265.932,189.114h1.047l-.083.361h.012a1.156,1.156,0,0,1,.882-.434c.5,0,.926.209.926.768a3.058,3.058,0,0,1-.076.542l-.345,1.608h-1.086l.279-1.306a3.171,3.171,0,0,0,.088-.471.271.271,0,0,0-.307-.273c-.346,0-.46.245-.526.541l-.317,1.509H265.34Z" transform="translate(168.668 -147.847)" fill="#fff"/>
    <path id="Path_1146" data-name="Path 1146" d="M291.769,191.129c-.071.193-.284.9-1.512.9-1.009,0-1.414-.565-1.414-1.255a1.637,1.637,0,0,1,1.7-1.734,1.273,1.273,0,0,1,1.392,1.246,1.778,1.778,0,0,1-.055.493h-2.028c0,.3.1.552.444.552a.463.463,0,0,0,.428-.2Zm-.855-.914a.512.512,0,0,0,.011-.094.371.371,0,0,0-.412-.384.567.567,0,0,0-.564.478Z" transform="translate(148.797 -147.847)" fill="#fff"/>
    <path id="Path_1147" data-name="Path 1147" d="M309.95,189.114H311l-.093.443h.011a1.1,1.1,0,0,1,.827-.516,1.123,1.123,0,0,1,.384.046l-.2.957a1.247,1.247,0,0,0-.417-.071c-.46,0-.69.2-.816.8l-.247,1.19h-1.086Z" transform="translate(131.447 -147.847)" fill="#fff"/>
    <path id="Path_1148" data-name="Path 1148" d="M10.831,24.382H29.39l-1.164,5.756H16.588l-.6,2.8H26.779l-1.1,5.347H14.858l-.6,2.8H26.149l-1.195,5.757H6.145Z" transform="translate(387.805 -8.635)" fill="#04a64a"/>
    <path id="Path_1149" data-name="Path 1149" d="M150.749,24.382h11.135c4.12,0,6.794,2.264,6.794,7.234,0,4.528-3.806,8.429-9.719,8.429H154.3l-1.415,6.8h-6.826ZM155.435,34.7h2.642c2.768,0,3.68-1.038,3.68-2.548,0-1.73-1.541-2.012-2.988-2.012H156.41Z" transform="translate(269.512 -8.635)" fill="#04a64a"/>
    <path id="Path_1150" data-name="Path 1150" d="M289.924,76.572h6.448l-1.29,6.229h-6.447Zm7.172-3.43h-6.448l1.29-6.227h6.448Z" transform="translate(148.973 -44.596)" fill="#04a64a"/>
    <g id="Group_1" data-name="Group 1" transform="translate(451.816 15.635)">
      <path id="Path_97" data-name="Path 97" d="M386.815,29.432h-6.242l1.2-5.769H401.19l-1.2,5.769H393.75l-3.468,16.739h-6.935Z" transform="translate(-380.573 -23.663)" fill="#fff"/>
      <path id="Path_98" data-name="Path 98" d="M520.261,79.8h-6.053l.5-2.081h-.063a6.7,6.7,0,0,1-5.264,2.491c-2.837,0-5.2-1.229-5.2-4.35,0-1.419.536-3.4,2.427-12.421h6.242l-1.828,8.543a7.949,7.949,0,0,0-.252,1.8,1.622,1.622,0,0,0,1.8,1.45c2.806,0,2.932-3.058,3.436-5.138l1.418-6.652h6.242Z" transform="translate(-485.08 -57.292)" fill="#fff"/>
      <path id="Path_99" data-name="Path 99" d="M634.668,61.2h6.053l-.441,2.144h.063a6.605,6.605,0,0,1,5.139-2.554c2.144,0,4,.694,4.413,2.711a6.719,6.719,0,0,1,5.359-2.711c3.184,0,5.233,1.482,5.233,4.855a17.614,17.614,0,0,1-.378,2.585l-1.986,9.331H651.88l1.671-7.818a22.568,22.568,0,0,0,.378-2.4,1.438,1.438,0,0,0-1.608-1.576,2.266,2.266,0,0,0-2.364,1.891l-2.144,9.9h-6.242l1.892-8.764a8,8,0,0,0,.252-1.513c0-1.04-.568-1.513-1.576-1.513a2.593,2.593,0,0,0-2.617,2.427L637.5,77.558h-6.242Z" transform="translate(-592.52 -55.05)" fill="#fff"/>
      <path id="Path_100" data-name="Path 100" d="M831.1,61.2h6.053l-.442,2.144h.063a6.606,6.606,0,0,1,5.139-2.554c2.144,0,4,.694,4.413,2.711a6.719,6.719,0,0,1,5.359-2.711c3.184,0,5.233,1.482,5.233,4.855a17.631,17.631,0,0,1-.378,2.585l-1.986,9.331h-6.242l1.671-7.818a22.568,22.568,0,0,0,.378-2.4,1.438,1.438,0,0,0-1.608-1.576,2.267,2.267,0,0,0-2.364,1.891l-2.144,9.9H838l1.892-8.764a7.991,7.991,0,0,0,.252-1.513c0-1.04-.568-1.513-1.576-1.513a2.593,2.593,0,0,0-2.616,2.427l-2.018,9.363h-6.242Z" transform="translate(-758.593 -55.05)" fill="#fff"/>
      <path id="Path_101" data-name="Path 101" d="M1046.674,72.8c-.41,1.1-1.639,5.17-8.7,5.17-5.8,0-8.133-3.247-8.133-7.219,0-7.5,5.737-9.962,9.8-9.962,3.625,0,8.007,2.018,8.007,7.156a10.164,10.164,0,0,1-.315,2.837h-11.664c0,1.734.6,3.184,2.553,3.184a2.674,2.674,0,0,0,2.459-1.166Zm-4.918-5.264a3.11,3.11,0,0,0,.063-.536,2.13,2.13,0,0,0-2.364-2.207,3.262,3.262,0,0,0-3.247,2.743Z" transform="translate(-929.498 -55.05)" fill="#fff"/>
      <path id="Path_102" data-name="Path 102" d="M1156.007,61.2h6.053l-.536,2.553h.063a6.331,6.331,0,0,1,4.76-2.963,6.7,6.7,0,0,1,2.207.252l-1.166,5.517a6.968,6.968,0,0,0-2.4-.41c-2.648,0-3.972,1.135-4.7,4.571l-1.419,6.841h-6.242Z" transform="translate(-1033.314 -55.05)" fill="#fff"/>
      <path id="Path_103" data-name="Path 103" d="M1249.329,72.2a1.95,1.95,0,0,0,.568,1.513,2.744,2.744,0,0,0,1.64.41c1.671,0,1.891-1.072,1.891-1.45,0-1.166-1.576-1.261-3.909-1.671-1.1-.189-4.445-.662-4.445-4.224,0-4.7,4.193-5.99,8.133-5.99,3.468,0,7.692.757,7.345,5.17h-5.58a1.3,1.3,0,0,0-.441-1.293,2.363,2.363,0,0,0-1.45-.41c-.851,0-1.765.347-1.765,1.324,0,.883.6,1.135,1.419,1.229,4.634.631,6.935,1.639,6.935,5.075,0,3.783-3.247,6.084-8.291,6.084-3.531,0-7.913-.851-7.787-5.769Z" transform="translate(-1110.212 -55.05)" fill="#fff"/>
    </g>
    <path id="Path_1151" data-name="Path 1151" d="M513.858,193.312l.539-2.969H361.737l-.635,2.969Z" transform="translate(87.705 -148.947)" fill="#04a64a"/>
  </g>
</svg>
